<svg width="28" height="34" viewBox="0 0 28 34" fill="none" xmlns="http://www.w3.org/2000/svg">
<path d="M27.4132 26.4963C26.9105 27.6842 26.3154 28.7776 25.626 29.7829C24.6862 31.1533 23.9168 32.102 23.3238 32.6287C22.4045 33.4934 21.4196 33.9362 20.3649 33.9614C19.6078 33.9614 18.6947 33.741 17.6318 33.294C16.5655 32.8491 15.5855 32.6287 14.6894 32.6287C13.7497 32.6287 12.7418 32.8491 11.6637 33.294C10.584 33.741 9.71423 33.974 9.04922 33.9971C8.03784 34.0412 7.02975 33.5857 6.02351 32.6287C5.38127 32.0558 4.57796 31.0736 3.61562 29.6821C2.58312 28.1963 1.73425 26.4732 1.06924 24.5089C0.357028 22.3871 0 20.3324 0 18.3433C0 16.0647 0.481372 14.0995 1.44555 12.4527C2.20331 11.1298 3.2114 10.0864 4.47311 9.32034C5.73481 8.55431 7.09808 8.16395 8.5662 8.13898C9.36952 8.13898 10.423 8.39313 11.7321 8.89262C13.0375 9.39379 13.8757 9.64795 14.2431 9.64795C14.5179 9.64795 15.449 9.35077 17.0276 8.75831C18.5203 8.20887 19.7802 7.98137 20.8123 8.07098C23.609 8.30184 25.7101 9.42947 27.1074 11.461C24.6062 13.0111 23.3689 15.1822 23.3935 17.9674C23.4161 20.1368 24.1856 21.9421 25.6978 23.3756C26.3831 24.0408 27.1485 24.555 28 24.9202C27.8153 25.468 27.6204 25.9926 27.4132 26.4963ZM20.999 0.680194C20.999 2.38058 20.3916 3.96823 19.181 5.43774C17.7201 7.1847 15.953 8.19417 14.0367 8.03488C14.0123 7.83089 13.9982 7.61619 13.9982 7.39058C13.9982 5.75821 14.6929 4.01125 15.9267 2.58288C16.5427 1.85966 17.3261 1.25832 18.2761 0.778622C19.2241 0.306078 20.1208 0.0447511 20.9641 0C20.9887 0.227315 20.999 0.454645 20.999 0.680172V0.680194Z" fill="white"/>
</svg>
