<svg width="18" height="18" viewBox="0 0 18 18" fill="currentColor" xmlns="http://www.w3.org/2000/svg">
<path d="M3.2904 17.7576C3.16118 17.8809 3.00258 17.9612 2.83323 17.9891C2.66388 18.0169 2.4908 17.9912 2.33432 17.9149C2.17784 17.8385 2.04444 17.7148 1.9498 17.5582C1.85515 17.4016 1.80319 17.2186 1.8 17.0307V14.8153C1.32261 14.8153 0.864773 14.6072 0.527208 14.2367C0.189642 13.8663 0 13.3638 0 12.8399V5.92612C0 5.40222 0.189642 4.89978 0.527208 4.52932C0.864773 4.15887 1.32261 3.95075 1.8 3.95075H11.7C12.1774 3.95075 12.6352 4.15887 12.9728 4.52932C13.3104 4.89978 13.5 5.40222 13.5 5.92612V12.8399C13.5 13.3638 13.3104 13.8663 12.9728 14.2367C12.6352 14.6072 12.1774 14.8153 11.7 14.8153H7.2027L3.2904 17.7576ZM14.4 9.89366C14.3971 10.0151 14.3971 10.1367 14.4 10.2581V9.89268C14.4045 9.78699 14.4054 8.46349 14.4036 5.92316C14.4029 5.13782 14.1181 4.38492 13.6118 3.82987C13.1056 3.27483 12.4192 2.96306 11.7036 2.96306H4.5V1.97537C4.5 1.45147 4.68964 0.949028 5.02721 0.578574C5.36477 0.208119 5.82261 0 6.3 0H16.2C16.6774 0 17.1352 0.208119 17.4728 0.578574C17.8104 0.949028 18 1.45147 18 1.97537V8.88919C18 9.41309 17.8104 9.91553 17.4728 10.286C17.1352 10.6564 16.6774 10.8646 16.2 10.8646V13.0799C16.1968 13.2678 16.1448 13.4508 16.0502 13.6075C15.9556 13.7641 15.8222 13.8878 15.6657 13.9641C15.5092 14.0404 15.3361 14.0662 15.1668 14.0383C14.9974 14.0105 14.8388 13.9302 14.7096 13.8069L14.4 13.5738V9.89366Z" fill="currentColor"/>
</svg>
