<svg width="18" height="18" viewBox="0 0 18 18" fill="none" xmlns="http://www.w3.org/2000/svg">
<path d="M16.3115 4.5066H2.67733C2.51449 4.5381 2.34669 4.53322 2.18596 4.4923C2.02522 4.45138 1.87553 4.37544 1.7476 4.26992C1.61967 4.16439 1.51667 4.0319 1.44597 3.88192C1.37527 3.73194 1.33863 3.56819 1.33867 3.40239V3.38103L15.749 2.81993V1.48183C15.7725 1.28219 15.7503 1.07982 15.6841 0.890001C15.6179 0.700187 15.5094 0.527892 15.3668 0.386127C15.2242 0.244363 15.0513 0.136835 14.861 0.0716642C14.6708 0.00649338 14.4682 -0.0146168 14.2686 0.00992782L1.47366 2.08904C1.04183 2.24838 0.669154 2.53603 0.405711 2.91334C0.142268 3.29064 0.000688052 3.73952 0 4.19963L0 16.3122C0 16.7595 0.177779 17.1885 0.494226 17.5049C0.810674 17.8212 1.23987 17.9989 1.68739 17.9989H16.3115C16.759 17.9989 17.1882 17.8212 17.5047 17.5049C17.8211 17.1885 17.9989 16.7595 17.9989 16.3122V6.18091L18 6.13481C18 5.70238 17.8281 5.28767 17.5222 4.9819C17.2163 4.67613 16.8015 4.50435 16.3689 4.50435L16.3092 4.50548L16.3115 4.5066ZM14.6241 12.3778C14.1764 12.3776 13.7471 12.1997 13.4307 11.8832C13.1142 11.5667 12.9365 11.1374 12.9367 10.69C12.9368 10.2425 13.1148 9.81337 13.4315 9.49706C13.7481 9.18075 14.1775 9.00313 14.6252 9.00328C14.8469 9.00335 15.0664 9.04707 15.2711 9.13193C15.4759 9.21679 15.6619 9.34113 15.8186 9.49786C15.9753 9.65458 16.0996 9.84062 16.1843 10.0454C16.2691 10.2501 16.3127 10.4695 16.3126 10.6911C16.3125 10.9126 16.2688 11.132 16.1839 11.3367C16.099 11.5414 15.9746 11.7273 15.8178 11.884C15.661 12.0406 15.4749 12.1648 15.2701 12.2495C15.0653 12.3343 14.8458 12.3778 14.6241 12.3778Z" fill="#4A4A4A"/>
</svg>
